<!DOCTYPE svg PUBLIC "-//W3C//DTD SVG 1.1//EN" "http://www.w3.org/Graphics/SVG/1.1/DTD/svg11.dtd">
<!-- Uploaded to: SVG Repo, www.svgrepo.com, Transformed by: SVG Repo Mixer Tools -->
<svg fill="#f5f5f5" width="800px" height="800px" viewBox="0 0 24 24" xmlns="http://www.w3.org/2000/svg">
<g id="SVGRepo_bgCarrier" stroke-width="0"/>
<g id="SVGRepo_tracerCarrier" stroke-linecap="round" stroke-linejoin="round"/>
<g id="SVGRepo_iconCarrier">
<path d="M13.79,10.21a1,1,0,0,0,1.42,0,1,1,0,0,0,0-1.42l-2.5-2.5a1,1,0,0,0-.33-.21,1,1,0,0,0-.76,0,1,1,0,0,0-.33.21l-2.5,2.5a1,1,0,0,0,1.42,1.42l.79-.8v5.18l-.79-.8a1,1,0,0,0-1.42,1.42l2.5,2.5a1,1,0,0,0,.33.21.94.94,0,0,0,.76,0,1,1,0,0,0,.33-.21l2.5-2.5a1,1,0,0,0-1.42-1.42l-.79.8V9.41ZM7,4H17a1,1,0,0,0,0-2H7A1,1,0,0,0,7,4ZM17,20H7a1,1,0,0,0,0,2H17a1,1,0,0,0,0-2Z"/>
</g>
</svg>