<!DOCTYPE svg PUBLIC "-//W3C//DTD SVG 1.1//EN" "http://www.w3.org/Graphics/SVG/1.1/DTD/svg11.dtd">
<!-- Uploaded to: SVG Repo, www.svgrepo.com, Transformed by: SVG Repo Mixer Tools -->
<svg fill="#f5f5f5" width="800px" height="800px" viewBox="0 0 24 24" xmlns="http://www.w3.org/2000/svg">
<g id="SVGRepo_bgCarrier" stroke-width="0"/>
<g id="SVGRepo_tracerCarrier" stroke-linecap="round" stroke-linejoin="round"/>
<g id="SVGRepo_iconCarrier">
<path d="M21,10H19V7a1,1,0,0,0-1-1H13V3a1,1,0,0,0-2,0V6H6A1,1,0,0,0,5,7v3H3a1,1,0,0,0-1,1v6a1,1,0,0,0,1,1h8v3a1,1,0,0,0,2,0V18h8a1,1,0,0,0,1-1V11A1,1,0,0,0,21,10ZM7,8H17v2H7Zm13,8H4V12H20Z"/>
</g>
</svg>