<!DOCTYPE svg PUBLIC "-//W3C//DTD SVG 1.1//EN" "http://www.w3.org/Graphics/SVG/1.1/DTD/svg11.dtd">
<!-- Uploaded to: SVG Repo, www.svgrepo.com, Transformed by: SVG Repo Mixer Tools -->
<svg fill="#f5f5f5" width="800px" height="800px" viewBox="0 0 24 24" xmlns="http://www.w3.org/2000/svg">
<g id="SVGRepo_bgCarrier" stroke-width="0"/>
<g id="SVGRepo_tracerCarrier" stroke-linecap="round" stroke-linejoin="round"/>
<g id="SVGRepo_iconCarrier">
<path d="M21,11H9.41l2.3-2.29a1,1,0,1,0-1.42-1.42l-4,4a1,1,0,0,0-.21.33,1,1,0,0,0,0,.76,1,1,0,0,0,.21.33l4,4a1,1,0,0,0,1.42,0,1,1,0,0,0,0-1.42L9.41,13H21a1,1,0,0,0,0-2ZM3,3A1,1,0,0,0,2,4V20a1,1,0,0,0,2,0V4A1,1,0,0,0,3,3Z"/>
</g>
</svg>