<!DOCTYPE svg PUBLIC "-//W3C//DTD SVG 1.1//EN" "http://www.w3.org/Graphics/SVG/1.1/DTD/svg11.dtd">
<!-- Uploaded to: SVG Repo, www.svgrepo.com, Transformed by: SVG Repo Mixer Tools -->
<svg fill="#f5f5f5" width="800px" height="800px" viewBox="0 0 24 24" xmlns="http://www.w3.org/2000/svg">
<g id="SVGRepo_bgCarrier" stroke-width="0"/>
<g id="SVGRepo_tracerCarrier" stroke-linecap="round" stroke-linejoin="round"/>
<g id="SVGRepo_iconCarrier">
<path d="M21,11H18V6a1,1,0,0,0-1-1H14V3a1,1,0,0,0-1-1H7A1,1,0,0,0,6,3v8H3a1,1,0,0,0,0,2H6v8a1,1,0,0,0,1,1h6a1,1,0,0,0,1-1V19h3a1,1,0,0,0,1-1V13h3a1,1,0,0,0,0-2Zm-9,9H8V4h4Zm4-3H14V7h2Z"/>
</g>
</svg>